# xmcd CD database file
#
# Track frame offsets:
#	150
#	17322
#	34805
#	53725
#	71417
#	91015
#	110392
#	124200
#	144510
#	160357
#	178600
#
# Disc length: 2594 seconds
#
# Revision: 1
# Processed by: cddbd v1.5.1PL2 Copyright (c) Steve Scherf et al.
# Submitted via: jetAudio 5
#
DISCID=870a200b
DTITLE=Fly To The Sky - Gravity
DYEAR=1900
DGENRE=
TTITLE0=Stay
TTITLE1=Gravity
TTITLE2=그대는 모르죠(Good-bye)
TTITLE3=Old Skool Love
TTITLE4=열감기(Rest of my life)
TTITLE5=한참이 지나도(If you go away)
TTITLE6=Take A Bow
TTITLE7=사랑을 모르다...(Monologue)
TTITLE8=Tell me
TTITLE9=My Neverending Story
TTITLE10=For you
EXTD=
EXTT0=
EXTT1=
EXTT2=
EXTT3=
EXTT4=
EXTT5=
EXTT6=
EXTT7=
EXTT8=
EXTT9=
EXTT10=
PLAYORDER=
